<?xml version="1.0" encoding="utf-8"?>
<!-- Generator: Adobe Illustrator 26.2.1, SVG Export Plug-In . SVG Version: 6.00 Build 0)  -->
<svg version="1.1" id="Layer_1" xmlns="http://www.w3.org/2000/svg" xmlns:xlink="http://www.w3.org/1999/xlink" x="0px" y="0px"
	 viewBox="0 0 1920 1080" style="enable-background:new 0 0 1920 1080;" xml:space="preserve">
<style type="text/css">
	.st0{fill:#1C141B;}
	.st1{fill:#E8463E;}
</style>
<g>
	<rect x="-32.5" y="-31.5" class="st0" width="1977" height="1139"/>
	<path d="M1944-31v1138H-32V-31H1944 M1945-32H-33v1140h1978V-32L1945-32z"/>
</g>
<g>
	<g>
		<path class="st1" d="M689.78,314.16c-38.17,24.81-70.73,56.92-95.97,94.82c-6.14,9.21-11.8,18.79-16.73,28.71
			c-8.17,16.43-14.53,32.74-16.04,51.12c-2.06,25.27,14.03,48.85,38.55,55.59c23.72,6.52,48.04-1.42,69.65-10.88
			c18.28-8,34.51-19.34,50.12-31.63c15.95-12.55,29.4-28.31,40.01-45.6c11.77-19.2,19.68-40.87,26.37-62.29
			c6.23-19.94,11.21-40.46,19.33-59.75c-1.26,2.99-2.52,5.97-3.78,8.96c4.34-10.11,9.63-19.76,16.36-28.5
			c-1.95,2.53-3.91,5.06-5.86,7.59c4.53-5.75,9.62-10.96,15.42-15.44c-2.53,1.95-5.06,3.91-7.59,5.86
			c4.61-3.45,9.52-6.36,14.81-8.64c-2.99,1.26-5.97,2.52-8.96,3.78c4.59-1.87,9.29-3.19,14.2-3.88c-3.32,0.45-6.65,0.89-9.97,1.34
			c4.6-0.56,9.17-0.55,13.77,0.06c-3.32-0.45-6.65-0.89-9.97-1.34c4.44,0.67,8.7,1.87,12.84,3.6c-2.99-1.26-5.97-2.52-8.96-3.78
			c4.08,1.8,7.86,4.05,11.4,6.76c-2.53-1.95-5.06-3.91-7.59-5.86c3.54,2.81,6.67,5.98,9.47,9.52c-1.95-2.53-3.91-5.06-5.86-7.59
			c3.02,3.98,5.47,8.24,7.42,12.83c-1.26-2.99-2.52-5.97-3.78-8.96c1.97,4.87,3.28,9.88,4.01,15.08c-0.45-3.32-0.89-6.65-1.34-9.97
			c1.14,9.4,0.98,18.85-0.28,28.23c0.45-3.32,0.89-6.65,1.34-9.97c-1.77,12.34-5.42,24.24-10.25,35.71
			c1.26-2.99,2.52-5.97,3.78-8.96c-18.58,43.27-51.37,78.78-77.99,117.1c-17.36,24.99-34.73,49.97-52.09,74.96
			c-8.39,12.08-16.66,24.26-25.33,36.13c-8.27,11.32-16.79,22.48-24.36,34.29c-8.48,13.22-17.15,28.37-17.21,44.55
			c-0.06,14.77,7.36,28.62,20.03,36.33c10.52,6.41,22.28,6.79,33.97,4.44c12.32-2.48,23.93-9.94,34.44-16.57
			c12.24-7.71,24.23-15.83,35.95-24.31c47.41-34.34,91.08-73.7,128.62-118.68c18.84-22.57,36.53-46.22,52.36-71
			c7.18-11.24,13.99-22.72,20.39-34.42c6.14-11.23,11.54-22.84,17.74-34.04c2.96-5.35,6.19-10.54,9.89-15.42
			c-1.95,2.53-3.91,5.06-5.86,7.59c3.5-4.48,7.35-8.56,11.78-12.13c-2.53,1.95-5.06,3.91-7.59,5.86c3.36-2.59,6.97-4.67,10.87-6.34
			c-2.99,1.26-5.97,2.52-8.96,3.78c3.62-1.45,7.32-2.48,11.17-3.08c-3.32,0.45-6.65,0.89-9.97,1.34c3.78-0.49,7.5-0.54,11.28-0.04
			c-3.32-0.45-6.65-0.89-9.97-1.34c2.66,0.43,5.19,1.12,7.69,2.12c-2.99-1.26-5.97-2.52-8.96-3.78c2.16,0.95,4.13,2.09,6.03,3.48
			c-2.53-1.95-5.06-3.91-7.59-5.86c1.94,1.54,3.61,3.23,5.16,5.16c-1.95-2.53-3.91-5.06-5.86-7.59c1.45,1.95,2.64,3.97,3.64,6.19
			c-1.26-2.99-2.52-5.97-3.78-8.96c1.03,2.52,1.72,5.08,2.15,7.76c-0.45-3.32-0.89-6.65-1.34-9.97c0.5,3.85,0.44,7.65,0,11.51
			c0.45-3.32,0.89-6.65,1.34-9.97c-0.97,7.16-3.16,14.01-5.92,20.66c1.26-2.99,2.52-5.97,3.78-8.96
			c-7.85,18.39-19.32,35.39-29.38,52.62c-11.18,19.14-22.36,38.29-33.54,57.43c-10.77,18.44-22.51,36.62-32.05,55.73
			c-5.47,10.96-10.66,22.66-12.51,34.87c-1.02,6.7-2.06,13.53-2.05,20.34c0.01,6.29,0.98,12.65,2.03,18.81
			c1.9,11.15,7.66,20.65,14.68,29.23c6.58,8.03,15.84,12.95,25.44,16.35c6.92,2.45,14.78,3.41,22.11,2.86
			c7.93-0.59,16.09-1.71,23.58-4.52c16-6,30.13-14.29,42.5-26.25c6.21-6,11.75-12.72,17.76-18.92c6.96-7.19,14.11-14.19,21.38-21.07
			c16.65-15.76,33.92-30.84,51.2-45.9c8.61-7.5,17.23-15,25.78-22.58c8.36-7.41,16.47-15.15,25.25-22.06
			c-2.53,1.95-5.06,3.91-7.59,5.86c5.85-4.51,12-8.51,18.77-11.5c-2.99,1.26-5.97,2.52-8.96,3.78c4.41-1.84,8.92-3.12,13.65-3.82
			c-3.32,0.45-6.65,0.89-9.97,1.34c3.89-0.48,7.74-0.54,11.65-0.12c-3.32-0.45-6.65-0.89-9.97-1.34c3.44,0.48,6.72,1.32,9.93,2.64
			c-2.99-1.26-5.97-2.52-8.96-3.78c2.47,1.12,4.73,2.44,6.9,4.07c-2.53-1.95-5.06-3.91-7.59-5.86c2.1,1.7,3.96,3.57,5.65,5.69
			c-1.95-2.53-3.91-5.06-5.86-7.59c1.76,2.37,3.19,4.88,4.37,7.58c-1.26-2.99-2.52-5.97-3.78-8.96c1.51,3.73,2.45,7.58,3,11.56
			c-0.45-3.32-0.89-6.65-1.34-9.97c0.75,6.34,0.5,12.68-0.32,19c0.45-3.32,0.89-6.65,1.34-9.97c-2.36,16.58-8.52,32.58-14.94,47.95
			c1.26-2.99,2.52-5.97,3.78-8.96c-11.34,26.86-26.05,52.16-43.79,75.29c1.95-2.53,3.91-5.06,5.86-7.59
			c-6.62,8.57-13.73,16.67-20.93,24.76c-8.95,10.04-18.26,20.63-24.19,32.8c-3.24,6.66-6.5,13.77-7.93,21.12
			c-1.41,7.2-2.69,14.92-2.02,22.32c1.04,11.35,3.04,19.31,7.76,29.58c0.87,1.89,1.86,3.68,3.07,5.38c2.89,4.08,5.95,8.5,9.76,11.85
			c8.09,7.11,16.01,11.8,26.31,15.12c4.88,1.58,10.17,1.93,15.21,2.55c2.37,0.29,4.71,0.45,7.1,0.34
			c15.53-0.67,30.11-5.35,43.3-13.55c19.18-11.92,34.93-28.22,49.5-45.26c14.76-17.27,28.97-34.92,46.95-49.02
			c-2.53,1.95-5.06,3.91-7.59,5.86c8.17-6.3,16.89-11.77,26.37-15.87c-2.99,1.26-5.97,2.52-8.96,3.78
			c6.79-2.83,13.79-4.87,21.07-5.95c-3.32,0.45-6.65,0.89-9.97,1.34c5.58-0.73,11.1-0.78,16.69-0.1c-3.32-0.45-6.65-0.89-9.97-1.34
			c5.79,0.8,11.4,2.32,16.81,4.54c-2.99-1.26-5.97-2.52-8.96-3.78c4.99,2.14,9.66,4.82,13.98,8.12c-2.53-1.95-5.06-3.91-7.59-5.86
			c3.37,2.68,6.41,5.66,9.09,9.03c-1.95-2.53-3.91-5.06-5.86-7.59c2.38,3.12,4.36,6.44,5.92,10.04c-1.26-2.99-2.52-5.97-3.78-8.96
			c1.38,3.39,2.32,6.86,2.84,10.48c-0.45-3.32-0.89-6.65-1.34-9.97c0.47,4.02,0.43,7.98-0.02,12c0.45-3.32,0.89-6.65,1.34-9.97
			c-0.87,6.29-2.7,12.27-5.13,18.12c1.26-2.99,2.52-5.97,3.78-8.96c-5.13,11.9-12.52,22.51-19.04,33.65
			c-4.73,8.08-8.53,16.47-11.97,25.18c-3.23,8.17-4.38,16.31-5.47,25.04c-1.08,8.64-0.02,16.91,1.49,25.51
			c0.46,2.61,1.18,5.13,2.12,7.6c1.98,5.17,4.01,10.77,7.17,15.42c5.99,8.81,12.6,15.98,21.85,21.45
			c8.13,4.81,16.17,7.02,25.28,8.25c9.26,1.24,18.85,1.08,27.75-2.24c7.17-2.68,11.82-5.07,17.62-9.55
			c5.85-4.52,9.5-8.64,13.77-15.15c5.18-7.89,6.23-19.99,3.78-28.9c-2.4-8.7-9.12-18.12-17.23-22.41c-8.7-4.6-19.25-6.9-28.9-3.78
			c-9.57,3.1-16.85,8.76-22.41,17.23c-0.32,0.51-0.66,1.01-1.03,1.49c1.95-2.53,3.91-5.06,5.86-7.59c-0.94,1.16-1.94,2.18-3.08,3.14
			c2.53-1.95,5.06-3.91,7.59-5.86c-1.4,1.07-2.86,1.94-4.46,2.67c2.99-1.26,5.97-2.52,8.96-3.78c-1.94,0.8-3.88,1.33-5.94,1.67
			c3.32-0.45,6.65-0.89,9.97-1.34c-2.43,0.31-4.82,0.33-7.26,0.07c3.32,0.45,6.65,0.89,9.97,1.34c-2.78-0.38-5.43-1.08-8.03-2.13
			c2.99,1.26,5.97,2.52,8.96,3.78c-2.28-1.01-4.37-2.23-6.34-3.75c2.53,1.95,5.06,3.91,7.59,5.86c-1.49-1.24-2.79-2.57-4.02-4.07
			c1.95,2.53,3.91,5.06,5.86,7.59c-1.84-2.42-3.32-4.98-4.53-7.77c1.26,2.99,2.52,5.97,3.78,8.96c-1.26-3.18-2.09-6.43-2.59-9.81
			c0.45,3.32,0.89,6.65,1.34,9.97c-0.56-4.63-0.48-9.23,0.12-13.85c-0.45,3.32-0.89,6.65-1.34,9.97c0.85-5.66,2.47-11.02,4.64-16.31
			c-1.26,2.99-2.52,5.97-3.78,8.96c5.26-12.26,12.95-23.17,19.62-34.66c4.71-8.12,8.51-16.69,11.9-25.45
			c3.41-8.84,4.83-18.13,5.65-27.55c2.78-32.12-18.02-63.47-45.97-77.91c-27.11-14-59.08-16.35-87.54-4.67
			c-8.15,3.35-16.15,6.75-23.66,11.37c-7.66,4.71-14.78,10.31-21.78,15.93c-9.1,7.32-17.41,15.59-25.18,24.3
			c-17.27,19.35-32.67,40.77-53.34,56.76c2.53-1.95,5.06-3.91,7.59-5.86c-5.64,4.28-11.64,8.23-18.18,11
			c2.99-1.26,5.97-2.52,8.96-3.78c-3.47,1.37-7.02,2.33-10.71,2.89c3.32-0.45,6.65-0.89,9.97-1.34c-3.67,0.46-7.29,0.49-10.96,0
			c3.32,0.45,6.65,0.89,9.97,1.34c-2.51-0.41-4.88-1.03-7.25-1.94c2.99,1.26,5.97,2.52,8.96,3.78c-2.34-0.99-4.45-2.19-6.49-3.7
			c2.53,1.95,5.06,3.91,7.59,5.86c-1.67-1.35-3.16-2.82-4.52-4.48c1.95,2.53,3.91,5.06,5.86,7.59c-1.48-1.95-2.68-3.98-3.7-6.21
			c1.26,2.99,2.52,5.97,3.78,8.96c-1.22-2.93-2.01-5.93-2.47-9.06c0.45,3.32,0.89,6.65,1.34,9.97c-0.43-3.59-0.41-7.13-0.01-10.72
			c-0.45,3.32-0.89,6.65-1.34,9.97c0.58-4.31,1.69-8.45,3.34-12.48c-1.26,2.99-2.52,5.97-3.78,8.96
			c2.73-6.26,6.39-11.93,10.54-17.33c-1.95,2.53-3.91,5.06-5.86,7.59c5.42-6.91,11.47-13.28,17.23-19.9
			c7.52-8.63,14.56-17.69,21.42-26.85c10.54-14.09,19.98-29.01,28.21-44.57c9.41-17.81,17.44-36.5,24.07-55.52
			c5.8-16.62,10.27-34.57,9.56-52.3c-0.54-13.36-3.29-25.02-9.14-36.98c-5.46-11.17-14.85-20.41-25.23-27.05
			c-11.24-7.19-25.96-10.64-39.19-10.49c-14.31,0.16-26.8,3.99-39.61,9.9c-18.44,8.51-33.34,23.7-48.34,37.05
			c-13.95,12.41-28.1,24.59-42.13,36.9c-15.98,14.03-31.82,28.23-47,43.13c-7.45,7.31-14.74,14.79-21.8,22.49
			c-4.45,4.86-8.81,9.57-14.04,13.61c2.53-1.95,5.06-3.91,7.59-5.86c-5.12,3.88-10.64,7.18-16.54,9.73
			c2.99-1.26,5.97-2.52,8.96-3.78c-4.42,1.86-8.99,3.27-13.73,3.97c3.32-0.45,6.65-0.89,9.97-1.34c-3.05,0.4-6.1,0.5-9.16,0.12
			c3.32,0.45,6.65,0.89,9.97,1.34c-2.08-0.3-4.08-0.8-6.03-1.58c2.99,1.26,5.97,2.52,8.96,3.78c-1.72-0.74-3.3-1.65-4.78-2.79
			c2.53,1.95,5.06,3.91,7.59,5.86c-1.35-1.1-2.53-2.33-3.6-3.71c1.95,2.53,3.91,5.06,5.86,7.59c-1.12-1.54-2.04-3.18-2.82-4.92
			c1.26,2.99,2.52,5.97,3.78,8.96c-1.26-3.02-2.01-6.16-2.47-9.39c0.45,3.32,0.89,6.65,1.34,9.97c-0.69-5.63-0.48-11.29,0.18-16.92
			c-0.45,3.32-0.89,6.65-1.34,9.97c0.94-6.67,2.87-13.01,5.43-19.23c-1.26,2.99-2.52,5.97-3.78,8.96
			c6.98-16.33,16.97-31.45,25.91-46.75c9.4-16.1,18.8-32.2,28.2-48.3c9.53-16.32,19.06-32.63,28.58-48.95
			c9.12-15.62,18.32-31.42,23.32-48.96c5.82-20.41,5.71-45.26-6.89-63.3c-3.4-4.86-7.02-9.83-11.65-13.59
			c-7.8-6.33-13.5-9.8-23.04-13.31c-8.51-3.13-18.39-4.37-27.45-3.38c-12.93,1.41-23.84,4.14-35.44,10.37
			c-8.54,4.59-16.51,11.22-22.88,18.54c-12.05,13.85-20.2,29.24-28.45,45.44c-16.95,33.3-37.16,64.87-59.96,94.46
			c1.95-2.53,3.91-5.06,5.86-7.59c-34.54,44.63-74.91,84.62-119.52,119.16c2.53-1.95,5.06-3.91,7.59-5.86
			c-12.14,9.36-24.57,18.32-37.31,26.84c-10.98,7.34-22.17,15.42-34.36,20.66c2.99-1.26,5.97-2.52,8.96-3.78
			c-2.13,0.88-4.3,1.64-6.58,2.03c3.32-0.45,6.65-0.89,9.97-1.34c-0.97,0.13-1.92,0.18-2.89,0.05c3.32,0.45,6.65,0.89,9.97,1.34
			c-0.4-0.08-0.75-0.17-1.13-0.32c2.99,1.26,5.97,2.52,8.96,3.78c-0.34-0.16-0.61-0.33-0.91-0.55c2.53,1.95,5.06,3.91,7.59,5.86
			c-0.18-0.15-0.34-0.32-0.48-0.5c1.95,2.53,3.91,5.06,5.86,7.59c-0.22-0.31-0.37-0.6-0.52-0.95c1.26,2.99,2.52,5.97,3.78,8.96
			c-0.13-0.4-0.21-0.78-0.28-1.2c0.45,3.32,0.89,6.65,1.34,9.97c-0.07-0.87-0.02-1.7,0.09-2.56c-0.45,3.32-0.89,6.65-1.34,9.97
			c0.39-2.24,1.14-4.36,2.01-6.45c-1.26,2.99-2.52,5.97-3.78,8.96c4.81-11.11,12.01-21.28,18.99-31.1c7.57-10.65,15.53-21,23-31.72
			c15.96-22.9,31.86-45.84,47.79-68.76c14.08-20.26,27.9-40.7,42.74-60.42c13.18-17.52,26.67-34.87,38.45-53.39
			c12.88-20.23,24.1-42.49,30.07-65.81c3.31-12.93,5.25-26.64,5.13-40c-0.08-8.21-1.12-16.49-2.54-24.56
			c-1.35-7.7-4.42-14.73-7.58-21.86c-1.82-4.11-3.98-7.97-6.64-11.59c-4.33-5.91-8.79-11.95-14.44-16.69
			c-11.27-9.47-23.91-17.3-38.49-20.52c-15.03-3.32-30.73-3.38-45.59,0.97c-15.72,4.6-29.22,13.02-41.46,23.72
			c-20.7,18.1-33.53,44.31-42.23,69.89c-7.01,20.63-12.31,41.8-19.57,62.34c-1.77,5-3.67,9.94-5.72,14.83
			c1.26-2.99,2.52-5.97,3.78-8.96c-5.4,12.67-12.01,24.72-20.37,35.69c1.95-2.53,3.91-5.06,5.86-7.59
			c-7.64,9.85-16.52,18.5-26.35,26.15c2.53-1.95,5.06-3.91,7.59-5.86c-13.18,10.16-27.51,19.04-42.82,25.63
			c2.99-1.26,5.97-2.52,8.96-3.78c-7.77,3.27-15.8,5.92-24.16,7.11c3.32-0.45,6.65-0.89,9.97-1.34c-4.25,0.54-8.49,0.69-12.74,0.13
			c3.32,0.45,6.65,0.89,9.97,1.34c-1.83-0.29-3.58-0.73-5.29-1.43c2.99,1.26,5.97,2.52,8.96,3.78c-1.09-0.49-2.09-1.06-3.06-1.75
			c2.53,1.95,5.06,3.91,7.59,5.86c-0.87-0.68-1.64-1.42-2.34-2.27c1.95,2.53,3.91,5.06,5.86,7.59c-0.77-1.02-1.38-2.07-1.9-3.24
			c1.26,2.99,2.52,5.97,3.78,8.96c-0.56-1.42-0.93-2.86-1.17-4.37c0.45,3.32,0.89,6.65,1.34,9.97c-0.36-2.77-0.27-5.53,0.06-8.3
			c-0.45,3.32-0.89,6.65-1.34,9.97c0.99-7.38,3.49-14.46,6.36-21.3c-1.26,2.99-2.52,5.97-3.78,8.96
			c8.2-19.21,19.63-37.29,32.31-53.81c-1.95,2.53-3.91,5.06-5.86,7.59c15.24-19.67,32.93-37.32,52.61-52.55
			c-2.53,1.95-5.06,3.91-7.59,5.86c6.07-4.66,12.32-9.07,18.73-13.24c8.15-5.3,14.61-12.88,17.23-22.41
			c2.47-8.98,1.36-20.93-3.78-28.9c-5.16-8.01-12.85-15.06-22.41-17.23C709.1,308.2,698.27,308.64,689.78,314.16L689.78,314.16z"/>
	</g>
</g>
</svg>
