<?xml version="1.0" encoding="utf-8"?>
<!-- Generator: Adobe Illustrator 26.3.1, SVG Export Plug-In . SVG Version: 6.00 Build 0)  -->
<svg version="1.1" id="Layer_1" xmlns="http://www.w3.org/2000/svg" xmlns:xlink="http://www.w3.org/1999/xlink" x="0px" y="0px"
	 viewBox="0 0 216 86.53" style="enable-background:new 0 0 216 86.53;" xml:space="preserve">
<style type="text/css">
	.st0{fill:#E8453E;}
</style>
<path class="st0" d="M36.05,41.71c0.43,0.76,0.65,1.61,0.65,2.56c0,0.94-0.22,1.78-0.67,2.52c-0.44,0.74-1.04,1.32-1.81,1.73
	c-0.76,0.42-1.61,0.63-2.55,0.63c-0.95,0-1.8-0.2-2.55-0.61c-0.75-0.41-1.34-0.99-1.77-1.73c-0.44-0.74-0.66-1.58-0.66-2.54
	c0-0.95,0.23-1.81,0.67-2.57c0.44-0.77,1.04-1.36,1.81-1.79c0.77-0.42,1.62-0.64,2.55-0.64c0.92,0,1.76,0.22,2.53,0.65
	C35.01,40.36,35.61,40.95,36.05,41.71z"/>
<path class="st0" d="M66.81,41.16h-8.98c0.34-1.1,0.9-1.93,1.69-2.49c0.8-0.55,1.76-0.83,2.9-0.83c1.09,0,2.01,0.28,2.76,0.83
	C65.93,39.23,66.47,40.06,66.81,41.16z"/>
<path class="st0" d="M114.94,41.74c-0.43-0.76-1.03-1.35-1.8-1.78c-0.76-0.42-1.61-0.64-2.55-0.64c-0.93,0-1.79,0.22-2.55,0.64
	c-0.77,0.43-1.37,1.02-1.8,1.78c-0.43,0.75-0.65,1.61-0.65,2.56c0,0.94,0.22,1.78,0.65,2.53c0.43,0.74,1.03,1.33,1.8,1.76
	c0.76,0.42,1.62,0.64,2.55,0.64c0.94,0,1.79-0.22,2.55-0.64c0.77-0.43,1.37-1.02,1.8-1.76c0.44-0.75,0.65-1.59,0.65-2.53
	C115.59,43.35,115.38,42.49,114.94,41.74z M114.94,41.74c-0.43-0.76-1.03-1.35-1.8-1.78c-0.76-0.42-1.61-0.64-2.55-0.64
	c-0.93,0-1.79,0.22-2.55,0.64c-0.77,0.43-1.37,1.02-1.8,1.78c-0.43,0.75-0.65,1.61-0.65,2.56c0,0.94,0.22,1.78,0.65,2.53
	c0.43,0.74,1.03,1.33,1.8,1.76c0.76,0.42,1.62,0.64,2.55,0.64c0.94,0,1.79-0.22,2.55-0.64c0.77-0.43,1.37-1.02,1.8-1.76
	c0.44-0.75,0.65-1.59,0.65-2.53C115.59,43.35,115.38,42.49,114.94,41.74z M211.28,43.35L167,6.52v13.6H46.22v24.59h-0.03V57.8h-7.37
	l-1.08-2.02c-1.87,1.79-4.21,2.68-7.01,2.68c-2.52,0-4.85-0.64-6.98-1.92c-2.14-1.29-3.84-3.02-5.09-5.21
	c-1.26-2.18-1.89-4.57-1.89-7.16c0-2.57,0.63-4.94,1.89-7.12c1.25-2.18,2.96-3.9,5.1-5.18c2.14-1.27,4.47-1.91,6.97-1.91
	c2.12,0,3.97,0.5,5.53,1.5V20.12H7.07v48.15H167v11.91L211.28,43.35z M75.64,47.36H58.16c0.49,0.97,1.19,1.7,2.08,2.2
	c0.89,0.49,1.91,0.74,3.05,0.74c0.98,0,1.84-0.15,2.56-0.44c0.73-0.29,1.44-0.72,2.16-1.3l4.49,6.51c-1.27,1.11-2.74,1.96-4.4,2.58
	c-1.66,0.61-3.48,0.92-5.45,0.92c-2.81,0-5.32-0.65-7.53-1.94c-2.21-1.3-3.93-3.03-5.15-5.21c-1.23-2.18-1.84-4.54-1.84-7.09
	c0-2.62,0.59-5.03,1.76-7.21c1.17-2.19,2.82-3.92,4.93-5.21c2.11-1.28,4.5-1.93,7.17-1.93c2.94,0,5.46,0.59,7.55,1.78
	c2.09,1.18,3.68,2.83,4.76,4.96c1.08,2.13,1.62,4.57,1.62,7.32C75.92,45.07,75.83,46.17,75.64,47.36z M94.88,39.66h-4.83V57.8h-10
	V39.66h-2.93v-9.14h2.9v-6.24h10.03v6.24h4.83V39.66z M123.57,51.52c-1.32,2.18-3.13,3.9-5.43,5.17c-2.29,1.27-4.84,1.9-7.63,1.9
	c-2.77,0-5.29-0.64-7.55-1.91c-2.26-1.28-4.04-3.01-5.35-5.18c-1.3-2.18-1.95-4.56-1.95-7.15c0-2.64,0.65-5.05,1.95-7.25
	c1.31-2.19,3.1-3.93,5.38-5.22c2.28-1.28,4.81-1.92,7.6-1.92c2.79,0,5.33,0.64,7.61,1.92c2.27,1.29,4.07,3.03,5.38,5.22
	c1.31,2.2,1.96,4.61,1.96,7.25C125.54,46.95,124.89,49.34,123.57,51.52z M155.96,57.8h-7.45l-1.64-2.78
	c-1.08,0.98-2.44,1.79-4.05,2.41c-1.62,0.62-3.1,0.93-4.44,0.93c-2.13,0-4.01-0.48-5.66-1.45c-1.64-0.97-2.91-2.36-3.82-4.18
	c-0.91-1.81-1.37-3.94-1.37-6.39V30.52h9.98v14.03c0,1.49,0.36,2.64,1.07,3.48c0.71,0.83,1.66,1.25,2.83,1.25
	c1.13,0,2.11-0.33,2.95-0.99c0.84-0.65,1.37-1.44,1.6-2.36V30.52h10V57.8z M159.47,57.8V30.52h7.45l1.76,2.96
	c1.56-2.33,3.77-3.5,6.61-3.5c1.17,0,2.31,0.2,3.42,0.6c1.1,0.4,2.14,0.98,3.11,1.73l-4.39,8.11c-1.21-0.85-2.35-1.28-3.44-1.28
	c-1.18,0-2.19,0.41-3.05,1.23s-1.35,2-1.47,3.55V57.8H159.47z M113.14,39.96c-0.76-0.42-1.61-0.64-2.55-0.64
	c-0.93,0-1.79,0.22-2.55,0.64c-0.77,0.43-1.37,1.02-1.8,1.78c-0.43,0.75-0.65,1.61-0.65,2.56c0,0.94,0.22,1.78,0.65,2.53
	c0.43,0.74,1.03,1.33,1.8,1.76c0.76,0.42,1.62,0.64,2.55,0.64c0.94,0,1.79-0.22,2.55-0.64c0.77-0.43,1.37-1.02,1.8-1.76
	c0.44-0.75,0.65-1.59,0.65-2.53c0-0.95-0.21-1.81-0.65-2.56C114.51,40.98,113.91,40.39,113.14,39.96z M114.94,41.74
	c-0.43-0.76-1.03-1.35-1.8-1.78c-0.76-0.42-1.61-0.64-2.55-0.64c-0.93,0-1.79,0.22-2.55,0.64c-0.77,0.43-1.37,1.02-1.8,1.78
	c-0.43,0.75-0.65,1.61-0.65,2.56c0,0.94,0.22,1.78,0.65,2.53c0.43,0.74,1.03,1.33,1.8,1.76c0.76,0.42,1.62,0.64,2.55,0.64
	c0.94,0,1.79-0.22,2.55-0.64c0.77-0.43,1.37-1.02,1.8-1.76c0.44-0.75,0.65-1.59,0.65-2.53C115.59,43.35,115.38,42.49,114.94,41.74z
	 M114.94,41.74c-0.43-0.76-1.03-1.35-1.8-1.78c-0.76-0.42-1.61-0.64-2.55-0.64c-0.93,0-1.79,0.22-2.55,0.64
	c-0.77,0.43-1.37,1.02-1.8,1.78c-0.43,0.75-0.65,1.61-0.65,2.56c0,0.94,0.22,1.78,0.65,2.53c0.43,0.74,1.03,1.33,1.8,1.76
	c0.76,0.42,1.62,0.64,2.55,0.64c0.94,0,1.79-0.22,2.55-0.64c0.77-0.43,1.37-1.02,1.8-1.76c0.44-0.75,0.65-1.59,0.65-2.53
	C115.59,43.35,115.38,42.49,114.94,41.74z"/>
</svg>
